<svg width="350" height="364" viewBox="0 0 350 364" fill="none" xmlns="http://www.w3.org/2000/svg">
<path d="M335.237 332.337C334.955 342.854 333.195 353.28 330.007 363.305C329.936 363.538 329.858 363.767 329.782 364H310.267C310.288 363.791 310.309 363.559 310.329 363.305C311.63 348.335 304.197 258.307 295.227 242.726C296.013 243.99 336.75 284.77 335.237 332.337Z" fill="#E4286A"/>
<path d="M333.772 363.305C333.609 363.538 333.44 363.771 333.266 364H318.625C318.736 363.802 318.865 363.569 319.014 363.305C321.433 358.937 328.591 345.877 335.235 332.337C342.373 317.787 348.927 302.685 348.375 297.219C348.546 298.451 353.488 336.032 333.772 363.305Z" fill="#E4286A"/>
<path d="M42.4572 95.8028H142.722C147.56 95.8027 152.254 97.4502 156.033 100.474C159.812 103.498 162.45 107.719 163.514 112.443L214.176 337.335C214.728 339.788 214.738 342.333 214.204 344.79C213.67 347.247 212.606 349.557 211.086 351.559C209.565 353.561 207.626 355.206 205.403 356.379C203.18 357.551 200.728 358.223 198.219 358.346L95.1462 363.429C89.627 363.701 84.1973 361.954 79.8705 358.514C75.5437 355.074 72.6152 350.176 71.6316 344.734L42.8932 185.733L37.4572 155.657L29.4353 111.274C29.0917 109.373 29.1714 107.419 29.6686 105.553C30.1659 103.686 31.0685 101.952 32.3122 100.474C33.5558 98.9969 35.1098 97.8122 36.8634 97.0047C38.617 96.1972 40.527 95.7868 42.4572 95.8028Z" fill="#3F3D56"/>
<path d="M129.522 100.651H141.226C144.587 100.651 147.847 101.801 150.465 103.911C153.083 106.021 154.901 108.964 155.617 112.25L204.245 335.308C204.525 336.592 204.525 337.922 204.245 339.206C203.964 340.49 203.41 341.698 202.62 342.749C201.83 343.799 200.823 344.666 199.668 345.291C198.512 345.916 197.236 346.284 195.925 346.37L93.1859 353.109C90.2874 353.299 87.4205 352.414 85.1322 350.624C82.844 348.833 81.2945 346.262 80.7796 343.401L39.2848 112.849C39.0162 111.357 39.0782 109.824 39.4663 108.358C39.8544 106.893 40.5591 105.53 41.5308 104.367C42.5025 103.203 43.7175 102.268 45.09 101.626C46.4625 100.984 47.9591 100.651 49.4741 100.651H60.577C61.6516 100.651 62.6963 101.005 63.5492 101.66C64.4022 102.314 65.0158 103.231 65.2952 104.27C65.5418 105.186 66.0836 105.996 66.8366 106.574C67.5896 107.151 68.5118 107.464 69.4605 107.464H122.17C124.028 107.464 125.817 106.763 127.18 105.499C128.543 104.236 129.38 102.505 129.522 100.651Z" fill="white"/>
<path d="M181.375 172.152C181.704 172.365 182.015 172.603 182.306 172.864L216.268 164.2L218.585 156L231.407 157.882L228.715 172.797C228.497 174.002 227.895 175.104 226.999 175.937C226.102 176.77 224.96 177.29 223.743 177.418L184.088 181.598C183.442 182.959 182.397 184.092 181.092 184.845C179.786 185.598 178.283 185.935 176.782 185.812C175.28 185.689 173.852 185.111 172.686 184.156C171.521 183.2 170.674 181.913 170.258 180.464C169.842 179.015 169.876 177.473 170.356 176.044C170.837 174.615 171.741 173.367 172.948 172.464C174.155 171.562 175.607 171.049 177.113 170.993C178.618 170.937 180.105 171.341 181.375 172.152Z" fill="#FFB6B6"/>
<path d="M157.139 202.905C169.238 202.905 179.047 193.089 179.047 180.98C179.047 168.87 169.238 159.054 157.139 159.054C145.039 159.054 135.231 168.87 135.231 180.98C135.231 193.089 145.039 202.905 157.139 202.905Z" fill="#E4286A"/>
<path d="M170.855 138.896H143.423L126.862 57.8204C126.436 53.5868 126.902 49.311 128.229 45.2685C129.555 41.226 131.714 37.5066 134.565 34.3501C137.416 31.1936 140.896 28.6699 144.781 26.9419C148.666 25.2139 152.87 24.3198 157.122 24.3173C161.373 24.3147 165.578 25.2039 169.465 26.9273C173.353 28.6507 176.836 31.1702 179.691 34.3233C182.545 37.4765 184.708 41.1933 186.04 45.2342C187.371 49.2751 187.842 53.5504 187.421 57.7845L170.855 138.896Z" fill="#E4286A"/>
<path d="M233.699 165.325L224.949 172.879L212.709 183.438L207.303 155.755L206.737 152.877L206.292 150.592L218.695 128.971L229.034 129.565L229.741 129.607L229.755 129.763L229.918 131.213L232.038 150.295L232.087 150.755L233.699 165.325Z" fill="#3F3D56"/>
<path d="M176.513 354.646L167.848 354.646L163.726 321.2L176.514 321.2L176.513 354.646Z" fill="#FFB6B6"/>
<path d="M178.722 363.051L150.785 363.05V362.697C150.785 359.811 151.931 357.043 153.97 355.002C156.009 352.961 158.775 351.815 161.659 351.814H161.66L178.723 351.815L178.722 363.051Z" fill="#2F2E41"/>
<path d="M266.972 355.354L258.308 355.353L254.186 321.907L266.974 321.908L266.972 355.354Z" fill="#FFB6B6"/>
<path d="M269.182 363.759L241.245 363.758V363.404C241.245 360.518 242.391 357.75 244.43 355.709C246.469 353.668 249.235 352.522 252.118 352.522H252.119L269.182 352.522L269.182 363.759Z" fill="#2F2E41"/>
<path d="M273.897 340.625L250.575 344.161L216.646 229.242L180.61 344.868L154.462 341.332L188.384 206.949V196.339L192.978 180.425L192.497 176.118L189.154 145.995L187.706 132.932L187.612 132.088C187.533 131.379 187.721 130.667 188.138 130.09C188.555 129.512 189.172 129.111 189.868 128.964L200.752 126.672H218.54L229.034 129.565L229.755 129.763L230.08 129.855L229.918 131.213L227.459 151.851L227.324 152.983L224.95 172.879L224.427 177.243C244.921 192.096 245.628 206.949 245.628 206.949L273.897 340.625Z" fill="#2F2E41"/>
<path d="M207.496 117.724C217.082 117.724 224.854 109.946 224.854 100.352C224.854 90.7582 217.082 82.9807 207.496 82.9807C197.91 82.9807 190.138 90.7582 190.138 100.352C190.138 109.946 197.91 117.724 207.496 117.724Z" fill="#FFB6B6"/>
<path d="M225.728 173.251L191.391 177.745L192.032 182.654L226.369 178.16L225.728 173.251Z" fill="#3F3D56"/>
<path d="M145.333 179.225C145.661 179.437 145.972 179.676 146.263 179.937L180.225 171.272L182.542 163.073L195.364 164.955L192.672 179.87C192.455 181.075 191.853 182.176 190.956 183.01C190.06 183.843 188.917 184.363 187.701 184.491L148.046 188.67C147.4 190.032 146.354 191.165 145.049 191.918C143.744 192.671 142.241 193.008 140.739 192.885C139.238 192.762 137.809 192.184 136.644 191.229C135.479 190.273 134.632 188.985 134.215 187.536C133.799 186.087 133.834 184.546 134.314 183.117C134.795 181.688 135.698 180.439 136.905 179.537C138.112 178.635 139.565 178.122 141.07 178.066C142.576 178.01 144.063 178.414 145.333 179.225Z" fill="#FFB6B6"/>
<path d="M197.572 133.391L191.564 128.794C189.94 128.177 187.715 129.929 187.324 131.623L178.844 166.28L196.511 179.011L198.985 175.121L197.572 133.391Z" fill="#3F3D56"/>
<g opacity="0.2">
<path d="M232.038 150.295C230.539 150.891 229.01 151.41 227.458 151.851C226.964 152 226.455 152.141 225.953 152.276C222.646 153.194 219.247 153.744 215.819 153.917C214.343 153.979 212.865 153.939 211.395 153.796C209.817 153.639 208.257 153.331 206.738 152.877C206.688 152.863 206.631 152.849 206.582 152.834C203.422 151.936 200.525 150.289 198.137 148.032C197.603 147.512 197.105 146.957 196.646 146.37C195.326 144.752 194.358 142.877 193.803 140.864C193.248 138.851 193.119 136.744 193.423 134.679C193.482 134.304 193.562 133.933 193.664 133.568C193.93 132.573 194.282 131.602 194.716 130.668C194.907 130.23 195.119 129.798 195.345 129.374L203.331 126.672H218.54L229.034 129.565L229.741 129.607L229.755 129.763L230.08 129.855L229.918 131.213L232.038 150.295Z" fill="black"/>
</g>
<path d="M194.196 85.9705C190.949 85.5723 187.387 85.8539 184.857 87.9278C182.327 90.0018 181.51 94.313 183.906 96.5413C186.027 98.514 189.343 98.0501 192.183 98.6111C194.63 99.16 196.823 100.515 198.409 102.458C199.996 104.402 200.885 106.822 200.935 109.331C200.893 116.527 193.992 121.976 192.753 129.065C191.907 133.902 193.945 138.994 197.47 142.411C200.995 145.828 205.84 147.675 210.721 148.175C215.603 148.675 220.54 147.911 225.284 146.656C230.048 145.396 234.738 143.607 238.736 140.724C242.733 137.84 246.01 133.774 247.293 129.013C248.577 124.251 247.655 118.792 244.348 115.136C240.561 110.949 234.26 109.51 230.984 104.912C227.312 99.757 228.671 92.4165 225.698 86.8282C223.714 83.0972 219.957 80.5524 215.952 79.2118C211.946 77.8712 207.67 77.6066 203.448 77.4768C201.23 77.4086 198.943 77.3858 196.876 78.1954C194.808 79.005 192.991 80.85 192.884 83.069C192.777 85.288 194.196 85.9705 194.196 85.9705Z" fill="#2F2E41"/>
</svg>
