<svg width="360" height="341" viewBox="0 0 360 341" fill="none" xmlns="http://www.w3.org/2000/svg">
<g clip-path="url(#clip0_607_221)">
<path d="M151.888 340.247L150.766 340.225C151.2 327.765 152.531 315.352 154.747 303.083C159.597 276.814 167.66 259.562 178.714 251.806L179.358 252.723C153.536 270.841 151.901 339.555 151.888 340.247Z" fill="#F1F1F1"/>
<path d="M165.907 339.979L164.785 339.957C164.809 338.716 165.51 309.467 177.033 301.383L177.677 302.3C166.619 310.058 165.912 339.68 165.907 339.979Z" fill="#E4286A"/>
<path d="M185.738 252.825C188.835 252.825 191.345 250.316 191.345 247.221C191.345 244.127 188.835 241.618 185.738 241.618C182.641 241.618 180.131 244.127 180.131 247.221C180.131 250.316 182.641 252.825 185.738 252.825Z" fill="#E4286A"/>
<path d="M182.962 301.013C186.059 301.013 188.569 298.504 188.569 295.409C188.569 292.315 186.059 289.806 182.962 289.806C179.865 289.806 177.355 292.315 177.355 295.409C177.355 298.504 179.865 301.013 182.962 301.013Z" fill="#E4286A"/>
<path d="M163.293 256.184C163.855 260.506 163.271 264.9 161.6 268.926C158.681 265.666 156.768 261.632 156.091 257.31C155.414 252.989 156.002 248.564 157.784 244.568C160.606 247.891 162.506 251.897 163.293 256.184Z" fill="#E4286A"/>
<path d="M181.621 272.52C177.46 273.826 173.028 274.017 168.77 273.074C171.474 269.634 175.115 267.049 179.256 265.629C183.396 264.21 187.859 264.018 192.107 265.075C189.324 268.431 185.708 270.998 181.621 272.52Z" fill="#E4286A"/>
<path d="M181.827 315.195C178.91 316.11 175.804 316.244 172.819 315.583C174.715 313.172 177.267 311.36 180.169 310.365C183.071 309.371 186.199 309.236 189.177 309.977C187.226 312.329 184.692 314.129 181.827 315.195Z" fill="#E4286A"/>
<path d="M65.2566 101.628L62.5585 85.134L54.9407 83.2308C54.9407 83.2308 48.8946 81.3698 47.4814 93.5396C46.0683 105.709 47.1638 128.431 47.1638 128.431L30.4384 181.359C29.1541 181.969 28.0729 182.936 27.3242 184.144C26.5756 185.352 26.1912 186.75 26.2171 188.171C26.243 189.591 26.6781 190.974 27.4702 192.154C28.2624 193.334 29.3781 194.261 30.6837 194.824C31.9894 195.387 33.4297 195.562 34.8322 195.328C36.2347 195.094 37.54 194.461 38.5918 193.504C39.6437 192.548 40.3975 191.309 40.7629 189.936C41.1284 188.563 41.0902 187.114 40.6527 185.762L62.3999 136.044L65.2566 101.628Z" fill="#FFB7B7"/>
<path d="M111.581 88.648L107.581 72.4198L113.84 67.6804C113.84 67.6804 118.669 63.5966 124.75 74.2347C130.832 84.8728 138.752 106.2 138.752 106.2L174.93 148.315C176.351 148.372 177.725 148.837 178.888 149.654C180.051 150.471 180.954 151.606 181.489 152.923C182.023 154.24 182.166 155.683 181.901 157.079C181.637 158.475 180.975 159.765 179.995 160.795C179.015 161.825 177.759 162.551 176.377 162.886C174.996 163.221 173.546 163.151 172.203 162.684C170.86 162.217 169.68 161.374 168.805 160.254C167.929 159.135 167.395 157.787 167.266 156.372L127.73 119.179L111.581 88.648Z" fill="#FFB7B7"/>
<path d="M142.845 331.605L151.917 331.604L156.234 296.636L142.843 296.636L142.845 331.605Z" fill="#FFB7B7"/>
<path d="M140.531 328.644L158.397 328.643H158.398C161.418 328.644 164.314 329.842 166.449 331.976C168.584 334.11 169.784 337.004 169.784 340.021V340.391L140.531 340.392L140.531 328.644Z" fill="#2F2E41"/>
<path d="M28.8854 331.605L37.9575 331.604L42.2737 296.636L28.8835 296.636L28.8854 331.605Z" fill="#FFB7B7"/>
<path d="M26.5709 328.644L44.4374 328.643H44.4381C47.4578 328.644 50.3538 329.842 52.489 331.976C54.6242 334.11 55.8239 337.004 55.8241 340.021V340.391L26.5714 340.392L26.5709 328.644Z" fill="#2F2E41"/>
<path d="M84.5265 57.5684C98.078 57.5684 109.064 46.5903 109.064 33.0481C109.064 19.5059 98.078 8.52777 84.5265 8.52777C70.9749 8.52777 59.9892 19.5059 59.9892 33.0481C59.9892 46.5903 70.9749 57.5684 84.5265 57.5684Z" fill="#2F2E41"/>
<path d="M65.3737 19.8273C69.3389 15.8649 70.1424 10.2437 67.1686 7.27187C64.1947 4.30007 58.5696 5.10311 54.6044 9.0655C50.6393 13.0279 49.8357 18.6492 52.8096 21.621C55.7834 24.5928 61.4086 23.7897 65.3737 19.8273Z" fill="#2F2E41"/>
<path d="M110.1 12.0407C111.753 8.17576 108.911 3.25815 103.755 1.05688C98.5978 -1.14438 93.0782 0.204261 91.4261 4.06917C89.774 7.93407 92.6151 12.8517 97.7719 15.0529C102.929 17.2542 108.448 15.9056 110.1 12.0407Z" fill="#2F2E41"/>
<path d="M103.577 48.8836C109.094 38.7989 105.385 26.1547 95.2936 20.6419C85.2019 15.1291 72.5489 18.8353 67.0323 28.92C61.5157 39.0047 65.2245 51.649 75.3162 57.1618C85.4079 62.6746 98.0609 58.9683 103.577 48.8836Z" fill="#FFB7B7"/>
<path d="M63.4232 25.8121C68.1819 29.0897 73.8301 30.834 79.6095 30.8109C77.5479 32.2394 75.201 33.2043 72.7303 33.6392C80.4145 35.2863 88.3562 35.3309 96.0585 33.7701C97.7706 33.4958 99.4226 32.9288 100.942 32.094C101.699 31.6715 102.359 31.0944 102.878 30.4003C103.398 29.7062 103.765 28.9107 103.956 28.0654C104.468 25.1436 102.19 22.489 99.8222 20.6999C96.1971 18.0026 92.0173 16.1442 87.5853 15.2591C83.1533 14.3741 78.5798 14.4846 74.1958 15.5826C71.3332 16.3221 68.4654 17.5714 66.6061 19.8688C64.7468 22.1661 64.196 25.7078 65.9675 28.0734L63.4232 25.8121Z" fill="#2F2E41"/>
<path d="M74.8684 65.9631L54.2567 82.7843L72.2661 125.695L72.6096 132.561C72.6096 132.561 53.9142 149.786 42.3467 197.905C30.7791 246.023 7.41589 309.961 7.41589 309.961L54.1551 321.387L86.6518 212.538L128.078 297.933L133.971 323.191L170.1 313.168L156.156 245.386L121.957 140.173L124.765 111.106C124.765 111.106 131.024 96.5983 120.152 81.2382L116.741 66.8052L99.0889 63.7983L74.8684 65.9631Z" fill="#2F2E41"/>
<path d="M249.746 236.982C247.02 236.973 244.306 236.622 241.668 235.938L241.148 235.794L240.666 235.553C223.227 226.816 208.515 215.275 196.938 201.251C187.355 189.574 179.884 176.316 174.86 162.073C168.852 145.021 165.962 127.029 166.327 108.954C166.334 108.575 166.341 108.282 166.341 108.08C166.341 99.2941 171.221 91.585 178.774 88.4401C184.554 86.0332 237.039 64.4905 240.831 62.934C247.973 59.358 255.592 62.3428 256.811 62.8647C259.546 63.982 308.065 83.8131 318.55 88.8023C329.356 93.9444 332.239 103.182 332.239 107.829C332.239 128.87 328.592 148.535 321.4 166.276C315.592 180.637 307.36 193.894 297.063 205.471C277.195 227.814 257.323 235.734 257.131 235.804C254.756 236.621 252.257 237.019 249.746 236.982ZM245.072 225.414C246.795 225.8 250.762 226.379 253.347 225.437C256.632 224.24 273.265 215.62 288.808 198.141C310.283 173.991 321.18 143.632 321.196 107.907C321.157 107.183 320.643 102.021 313.802 98.7661C303.52 93.8734 253.089 73.2663 252.581 73.0586L252.442 72.9996C251.385 72.557 248.021 71.6248 245.703 72.8389L245.238 73.0552C244.676 73.2859 188.963 96.1527 183.021 98.6267C178.865 100.357 177.384 104.645 177.384 108.08C177.384 108.331 177.377 108.696 177.368 109.168C176.893 133.613 182.554 193.762 245.072 225.414Z" fill="#3F3D56"/>
<path d="M243.139 67.9511C243.139 67.9511 186.92 91.0253 180.896 93.5334C174.873 96.0414 171.861 102.061 171.861 108.08C171.861 114.1 167.343 192.644 243.139 230.62C243.139 230.62 250.019 232.522 255.238 230.62C260.457 228.718 326.716 196.615 326.716 107.829C326.716 107.829 326.716 98.8003 316.175 93.7841C305.633 88.768 254.669 67.9511 254.669 67.9511C254.669 67.9511 248.41 65.1922 243.139 67.9511Z" fill="#E4286A"/>
<path opacity="0.2" d="M249.165 86.0093V209.102C249.165 209.102 305.887 181.818 305.385 110.087L249.165 86.0093Z" fill="black"/>
</g>
<defs>
<clipPath id="clip0_607_221">
<rect width="521" height="341" fill="white" transform="translate(-26)"/>
</clipPath>
</defs>
</svg>
