<svg width="300" height="338" viewBox="0 0 300 338" fill="none" xmlns="http://www.w3.org/2000/svg">
<g clip-path="url(#clip0_607_113)">
<path d="M245.586 159.251C254.87 165.449 263.567 173.749 271.713 183.986V199.638C267.738 198.237 252.566 192.43 246.575 183.246C239.651 172.633 238.419 156.521 244.186 152.487C245.688 151.439 247.513 151.308 249.514 151.883C255.827 156.584 261.864 162.284 267.631 168.927C269.675 172.179 270.939 176.319 271.713 180.502V180.701C264.253 169.947 255.482 162.971 245.586 159.251Z" fill="#E4286A"/>
<path d="M245.119 63.1124C254.404 69.3106 263.101 77.6104 271.247 87.8475V91.4224C270.468 91.1471 269.264 90.7074 267.78 90.1036C261.118 81.9246 253.522 76.4171 245.119 73.2576C250.998 77.1805 256.643 81.9487 262.06 87.5189C256.331 84.6638 249.631 80.4318 246.108 75.0306C245.735 74.4606 245.38 73.8857 245.045 73.3059C239.119 63.122 238.727 51.9526 244.186 48.1361C249.953 44.1021 260.063 49.8173 266.987 60.4263C270.99 66.5666 272.115 76.0935 272.343 83.026C271.975 83.5285 271.611 84.0406 271.247 84.5623C263.786 73.8084 255.015 66.8323 245.119 63.1124Z" fill="#E4286A"/>
<path d="M297.972 120.218V120.223C297.309 122.122 296.479 124.04 295.49 125.929C294.02 128.74 291.762 131.349 289.205 133.682C286.466 136.185 283.378 138.369 280.536 140.142C276.57 142.62 273.085 144.301 271.713 144.939V143.417C279.594 133.707 287.973 125.793 296.908 119.832C287.418 123.397 278.969 129.967 271.713 139.982V133.272C279.594 123.561 287.973 115.648 296.908 109.687C287.418 113.252 278.969 119.822 271.713 129.837V123.127C279.491 113.547 287.749 105.715 296.553 99.7828C300.678 103.218 301.037 111.503 297.972 120.218Z" fill="#E4286A"/>
<path d="M67.0383 188.04C104.063 188.04 134.077 156.961 134.077 118.625C134.077 80.2877 104.063 49.2096 67.0383 49.2096C30.0141 49.2096 0 80.2877 0 118.625C0 156.961 30.0141 188.04 67.0383 188.04Z" fill="#FF6884"/>
<path d="M277.077 229.916C282.716 234.834 284.835 241.833 281.812 245.548C278.789 249.263 271.768 248.287 266.128 243.366C263.849 241.433 262.051 238.962 260.883 236.161L237.246 215.01L247.069 203.737L269.327 225.785C272.192 226.501 274.849 227.918 277.077 229.916Z" fill="#FCB4B4"/>
<path d="M257.991 214.267L229.096 175.848L201.729 123.984L201.019 195.914L242.042 230.802L257.991 214.267Z" fill="#2F2E41"/>
<path d="M132.297 108.517L138.917 77.354L161.041 78.456L166.721 101.063L132.297 108.517Z" fill="#FCB4B4"/>
<path opacity="0.1" d="M132.297 108.517L138.917 77.354L161.041 78.456L166.721 101.063L132.297 108.517Z" fill="black"/>
<path d="M149.431 85.7158C163.111 85.7158 174.201 74.2331 174.201 60.0684C174.201 45.9037 163.111 34.421 149.431 34.421C135.752 34.421 124.662 45.9037 124.662 60.0684C124.662 74.2331 135.752 85.7158 149.431 85.7158Z" fill="#FCB4B4"/>
<path d="M138.352 69.973C138.352 69.973 135.853 69.9479 130.656 68.9471C125.458 67.9463 134.482 80.5222 134.482 80.5222C110.023 69.9469 117.85 43.1231 117.85 43.1231C93.0267 38.2074 103.426 15.3577 103.426 15.3577C103.426 15.3577 111.608 -0.992822 136.762 0.0476303C161.916 1.08808 150.033 26.7765 150.033 26.7765C166.422 26.8087 168.265 42.1021 168.265 42.1021C168.265 42.1021 162.358 42.8658 151.621 45.6874C140.884 48.5089 138.352 69.973 138.352 69.973Z" fill="#2F2E41"/>
<path d="M137.37 98.7025L136.251 96.4468C136.251 96.4468 116.347 98.8357 113.081 101.989C109.815 105.143 102.35 119.153 102.35 119.153L118.68 133.646L137.37 98.7025Z" fill="#FFB6B6"/>
<path d="M162.071 98.1548C162.071 98.1548 177.001 94.0313 185.399 102.727C193.797 111.423 203.595 127.366 203.595 127.366L203.128 139.926L179.8 128.282L162.071 98.1548Z" fill="#FFB6B6"/>
<path d="M165.877 96.4468C165.877 96.4468 185.399 89.2002 197.996 104.66C210.593 120.119 214.326 168.913 214.326 168.913C214.326 168.913 242.786 259.254 235.788 260.22C228.789 261.186 186.08 263.856 186.08 263.856L171.402 165.531L164.87 96.4468L165.877 96.4468Z" fill="#2F2E41"/>
<path d="M121.013 183.406L116.347 200.798L179.8 205.629C179.8 205.629 177.467 191.09 179.8 185.799L121.013 183.406Z" fill="#FCB4B4"/>
<path d="M156.938 296.453L159.738 338L194.973 337.034L193.797 295.004L156.938 296.453Z" fill="#FCB4B4"/>
<path d="M101.965 292.343L91.6191 337.517L128.505 337.258L137.903 300.334L101.965 292.343Z" fill="#FCB4B4"/>
<path d="M164.87 96.4468H136.251L113.081 128.332L118.213 193.551C118.213 193.551 129.877 190.169 146.207 190.169H181.2C181.2 190.169 176.067 173.261 182.599 166.497C189.131 159.734 184.466 128.332 184.466 128.332L164.87 96.4468Z" fill="#E4286A"/>
<path d="M114.014 195.484L87.8866 293.554C87.8866 293.554 126.36 309.561 149.581 304.94C172.802 300.318 204.528 298.868 204.528 298.868L182.133 199.348L114.014 195.484Z" fill="#2F2E41"/>
<path d="M174.433 231.365C180.071 236.283 182.191 243.282 179.167 246.997C176.144 250.712 169.124 249.736 163.484 244.816C161.205 242.882 159.406 240.411 158.238 237.611L134.602 216.46L144.424 205.186L166.683 227.234C169.548 227.95 172.205 229.367 174.433 231.365Z" fill="#FCB4B4"/>
<path d="M160.012 214.267L131.118 175.848L103.75 123.984L103.04 195.914L144.063 230.802L160.012 214.267Z" fill="#2F2E41"/>
<path d="M138.202 96.4468C138.202 96.4468 118.68 89.2002 106.083 104.66C93.4854 120.119 89.7529 168.913 89.7529 168.913C89.7529 168.913 61.2924 259.254 68.2908 260.22C75.2893 261.186 117.999 263.856 117.999 263.856L132.677 165.531L139.209 96.4468L138.202 96.4468Z" fill="#2F2E41"/>
<path d="M272.18 78.0887H271.247V246.21H272.18V78.0887Z" fill="#3F3D56"/>
<path d="M12.7696 250.558C22.0542 256.756 30.751 265.056 38.8972 275.293V290.945C34.9221 289.544 19.7494 283.737 13.7587 274.554C6.83487 263.94 5.60313 247.828 11.3699 243.794C12.8722 242.746 14.6965 242.615 16.698 243.19C23.0107 247.891 29.048 253.592 34.8148 260.234C36.8583 263.486 38.1228 267.626 38.8972 271.81V272.008C31.4369 261.254 22.6654 254.278 12.7696 250.558Z" fill="#E4286A"/>
<path d="M12.303 154.42C21.5876 160.618 30.2844 168.918 38.4307 179.155V182.73C37.6515 182.454 36.4477 182.015 34.9641 181.411C28.3015 173.232 20.7058 167.724 12.303 164.565C18.1817 168.488 23.8271 173.256 29.244 178.826C23.5146 175.971 16.8147 171.739 13.2921 166.338C12.9189 165.768 12.5643 165.193 12.2283 164.613C6.30296 154.429 5.91103 143.26 11.3699 139.443C17.1366 135.409 27.2471 141.124 34.1709 151.733C38.174 157.874 39.2985 167.401 39.5271 174.333C39.1585 174.836 38.7946 175.348 38.4307 175.869C30.9703 165.115 22.1988 158.139 12.303 154.42Z" fill="#E4286A"/>
<path d="M65.1555 211.525V211.53C64.493 213.429 63.6625 215.347 62.6734 217.236C61.2037 220.047 58.9455 222.656 56.3888 224.99C53.65 227.492 50.5614 229.676 47.7199 231.449C43.7541 233.927 40.2689 235.608 38.8972 236.246V234.724C46.7775 225.014 55.157 217.1 64.0918 211.139C54.6018 214.704 46.1523 221.274 38.8972 231.289V224.579C46.7775 214.868 55.157 206.955 64.0918 200.994C54.6018 204.559 46.1523 211.129 38.8972 221.144V214.434C46.6748 204.854 54.9331 197.022 63.7372 191.09C67.8616 194.525 68.2208 202.81 65.1555 211.525Z" fill="#E4286A"/>
<path d="M39.3638 169.396H38.4307V337.517H39.3638V169.396Z" fill="#3F3D56"/>
</g>
<defs>
<clipPath id="clip0_607_113">
<rect width="300" height="338" fill="white"/>
</clipPath>
</defs>
</svg>
